# xmcd
#
# Track frame offsets:
#	150
#	15924
#	31008
#	46095
#	59123
#	72147
#	83765
#	97155
#	106523
#	120157
#	126859
#	143188
#	150386
#	158860
#	168554
#	177633
#	189696
#	199075
#	210922
#	220953
#	231008
#	242904
#	258066
#
# Disc length: 3664 seconds
#
# Revision: 0
# Processed by: cddbd v1.5.2PL0 Copyright (c) Steve Scherf et al.
# Submitted via: dBpowerAMP V4.0
#
DISCID=300e4e17
DTITLE=mix party - dancehall
DYEAR=2007
DGENRE=
TTITLE0=A
TTITLE1=Track02a
TTITLE2=Track03z
TTITLE3=Track04e
TTITLE4=R
TTITLE5=Track06t
TTITLE6=Track07ty
TTITLE7=Track08uy
TTITLE8=Track09y
TTITLE9=Trackdsqsg10
TTITLE10=Track1hgfxj1
TTITLE11=Gfjgf
TTITLE12=Hjcg
TTITLE13=Track1ghjc4
TTITLE14=Track1gcgc5
TTITLE15=Track1chghg6
TTITLE16=Cghhjg
TTITLE17=Track1ghcghj8
TTITLE18=B,nc;
TTITLE19=Track2hflyf0
TTITLE20=Track2fuiud1
TTITLE21=Fd
TTITLE22=Hdhgfd
EXTD=11
EXTT0=
EXTT1=
EXTT2=
EXTT3=
EXTT4=
EXTT5=
EXTT6=
EXTT7=
EXTT8=
EXTT9=
EXTT10=
EXTT11=
EXTT12=
EXTT13=
EXTT14=
EXTT15=
EXTT16=
EXTT17=
EXTT18=
EXTT19=
EXTT20=
EXTT21=
EXTT22=
PLAYORDER=
